<svg width="128" height="124" viewBox="0 0 128 124" fill="none" xmlns="http://www.w3.org/2000/svg">
<path d="M46.1529 107.457L40.5807 117.994L37.1295 116.169C36.0357 115.591 35.2052 114.868 34.6381 114.001C34.0565 113.139 33.7536 112.194 33.7292 111.168C33.7049 110.141 33.9695 109.105 34.5229 108.058C35.0714 107.021 35.7792 106.219 36.6462 105.651C37.5082 105.094 38.4619 104.808 39.5072 104.793C40.5431 104.774 41.6079 105.054 42.7017 105.632L46.1529 107.457ZM43.6985 108.059L41.8881 107.102C41.1432 106.708 40.415 106.522 39.7035 106.544C38.9826 106.561 38.3217 106.773 37.7208 107.179C37.1199 107.585 36.615 108.175 36.2061 108.948C35.7972 109.721 35.6013 110.468 35.6183 111.189C35.6208 111.915 35.8133 112.577 36.1957 113.178C36.578 113.778 37.1417 114.275 37.8866 114.669L39.697 115.627L43.6985 108.059Z" fill="white"/>
<path d="M32.6963 98.8207L26.8093 105.166L25.4838 103.937L31.3708 97.591L32.6963 98.8207ZM26.004 106.034L24.5894 107.559L23.2639 106.33L24.6785 104.805L26.004 106.034Z" fill="white"/>
<path d="M25.2944 90.078C25.7881 90.8129 26.0409 91.5812 26.0526 92.3828C26.0584 93.1757 25.8301 93.888 25.3679 94.5198L24.0471 93.7301C24.3236 93.2617 24.4683 92.779 24.4813 92.2819C24.4884 91.776 24.3521 91.315 24.0726 90.8988C23.8346 90.5447 23.5616 90.3105 23.2535 90.1962C22.9455 90.0819 22.6542 90.117 22.3797 90.3014C22.2026 90.4203 22.0937 90.5642 22.0528 90.733C22.0032 90.9077 21.9935 91.0941 22.0238 91.2922C22.0481 91.4815 22.0931 91.6632 22.1588 91.8376L22.5985 93.1806C22.8378 93.9194 22.8845 94.5626 22.7385 95.1105C22.5777 95.6554 22.2583 96.0885 21.7802 96.4097C21.3463 96.7011 20.8957 96.8433 20.4282 96.8361C19.9519 96.8348 19.4943 96.6988 19.0555 96.4282C18.6167 96.1576 18.2337 95.7788 17.9066 95.2919C17.4664 94.6366 17.2376 93.9422 17.2202 93.2086C17.1939 92.4809 17.3972 91.8175 17.8299 91.2184L19.1507 92.008C18.9006 92.3817 18.7778 92.7918 18.7824 93.2385C18.781 93.6764 18.9081 94.0857 19.1639 94.4664C19.384 94.794 19.6392 95.0017 19.9294 95.0894C20.2108 95.1831 20.4754 95.1466 20.7234 94.9801C20.8916 94.8671 21.0035 94.7276 21.0591 94.5617C21.1059 94.4018 21.1171 94.2272 21.0928 94.038C21.0596 93.8547 21.0145 93.6729 20.9577 93.4926L20.5178 92.0919C20.2875 91.3857 20.2468 90.7512 20.3957 90.1886C20.5357 89.6319 20.8536 89.187 21.3495 88.8539C21.7745 88.5684 22.2281 88.4307 22.7103 88.4408C23.1778 88.448 23.6383 88.5884 24.0919 88.8619C24.5367 89.1414 24.9375 89.5467 25.2944 90.078Z" fill="white"/>
<path d="M19.2797 77.5151C19.5349 78.3405 19.5733 79.1325 19.3947 79.8911C19.2029 80.6427 18.8391 81.3078 18.3035 81.8866C17.7648 82.4551 17.0827 82.867 16.2572 83.1222C15.442 83.3743 14.6515 83.4178 13.8859 83.2526C13.1203 83.0874 12.4548 82.7405 11.8894 82.2119C11.3138 81.6865 10.8984 81.0111 10.6432 80.1857C10.4698 79.6252 10.4095 79.0688 10.462 78.5167C10.5044 77.9677 10.6437 77.4612 10.8799 76.9974C11.1129 76.5234 11.4319 76.1289 11.8369 75.8139L13.008 77.1097C12.6336 77.4153 12.3789 77.8011 12.2438 78.2672C12.0955 78.7261 12.0969 79.2002 12.2482 79.6894C12.3931 80.1581 12.6411 80.5448 12.9921 80.8494C13.3297 81.1469 13.7405 81.3381 14.2245 81.4229C14.6983 81.5108 15.195 81.4745 15.7148 81.3138C16.2345 81.1531 16.6702 80.9011 17.0218 80.5579C17.3633 80.2179 17.5945 79.8282 17.7154 79.3888C17.8332 78.9393 17.8196 78.4801 17.6747 78.0114C17.5203 77.512 17.259 77.1183 16.8907 76.8302C16.5092 76.5351 16.071 76.3636 15.5761 76.3157L15.8265 74.5802C16.3152 74.6078 16.7945 74.7498 17.2646 75.0064C17.7214 75.2559 18.1273 75.5938 18.4824 76.0199C18.8375 76.446 19.1032 76.9444 19.2797 77.5151Z" fill="white"/>
<path d="M17.253 63.6469C17.2431 64.4789 17.0367 65.2392 16.6338 65.9277C16.2311 66.6057 15.686 67.1432 14.9985 67.5404C14.3111 67.9376 13.5354 68.1311 12.6715 68.1208C11.7969 68.1104 11.026 67.8985 10.3589 67.4853C9.68107 67.0718 9.15424 66.5215 8.77838 65.8344C8.39186 65.147 8.2036 64.3821 8.21362 63.5395C8.22377 62.6862 8.43015 61.9259 8.83278 61.2587C9.22487 60.5806 9.76457 60.0483 10.4519 59.6618C11.1286 59.2645 11.9043 59.071 12.7789 59.0814C13.6535 59.0918 14.4297 59.3037 15.1075 59.7172C15.7853 60.1306 16.3175 60.6809 16.704 61.3683C17.0799 62.0554 17.2629 62.815 17.253 63.6469ZM15.5731 63.627C15.5792 63.115 15.4619 62.6602 15.2213 62.2627C14.9807 61.8651 14.6484 61.5518 14.2244 61.3228C13.7899 61.0829 13.3006 60.9598 12.7567 60.9533C12.2127 60.9468 11.726 61.0584 11.2966 61.288C10.8673 61.5069 10.5277 61.8122 10.2776 62.2039C10.0276 62.5956 9.89959 63.0475 9.8935 63.5594C9.88754 64.0607 10.0048 64.5155 10.2453 64.9237C10.4859 65.3213 10.8182 65.6399 11.242 65.8796C11.666 66.1087 12.15 66.2265 12.6939 66.2329C13.2379 66.2394 13.7298 66.1332 14.1698 65.9144C14.5992 65.6849 14.939 65.3742 15.189 64.9825C15.4391 64.5801 15.5671 64.1283 15.5731 63.627Z" fill="white"/>
<path d="M19.0518 50.4074L9.77159 50.9636L10.3787 49.0916L17.8951 48.7875L17.673 49.4724L11.7657 44.8148L12.3778 42.9276L19.5602 48.8397L19.0518 50.4074Z" fill="white"/>
<path d="M25.5862 37.3625C25.0946 38.073 24.4953 38.5923 23.7884 38.9203C23.0788 39.2335 22.3371 39.3494 21.5633 39.268C20.7807 39.1805 20.0385 38.894 19.3368 38.4084C18.6175 37.9108 18.0878 37.3172 17.7476 36.6279C17.4135 35.9297 17.2706 35.2083 17.319 34.4635C17.3586 33.7126 17.609 33.0039 18.0703 32.3372C18.4405 31.8021 18.8634 31.3878 19.3389 31.0942C19.8144 30.8006 20.3146 30.6214 20.8394 30.5565C21.3555 30.4855 21.8713 30.5181 22.3867 30.6542C22.9082 30.7816 23.4014 31.0061 23.8663 31.3278C23.9804 31.4067 24.0957 31.493 24.2125 31.5868C24.3292 31.6805 24.4311 31.7769 24.5182 31.8761L20.5944 37.547L19.4102 36.7276L22.7513 31.8988L22.7992 32.9826C22.4301 32.5975 22.0272 32.3642 21.5907 32.2826C21.1515 32.1863 20.7323 32.2205 20.3329 32.3852C19.9309 32.5351 19.5933 32.8074 19.3202 33.2021C19.0471 33.5968 18.9052 34.0175 18.8945 34.4641C18.8751 34.9046 18.9919 35.3356 19.245 35.7572C19.4893 36.1727 19.8824 36.542 20.4242 36.865C20.8763 37.2426 21.3429 37.4682 21.8239 37.5416C22.311 37.6062 22.7677 37.546 23.194 37.3611C23.6264 37.1674 23.9882 36.86 24.2795 36.4389C24.5769 36.0091 24.7323 35.5783 24.7457 35.1466C24.7651 34.706 24.6821 34.2919 24.4964 33.904L25.9261 33.1032C26.1623 33.4742 26.3132 33.9028 26.3787 34.3892C26.4416 34.8608 26.4094 35.3573 26.282 35.8788C26.1519 36.3855 25.92 36.88 25.5862 37.3625Z" fill="white"/>
<path d="M32.0557 29.5826L26.4527 22.9846L27.7699 21.8661L28.8988 23.1955L28.6111 23.1039C28.3915 22.5487 28.3649 22.0395 28.5314 21.5763C28.6909 21.105 28.9983 20.676 29.4536 20.2894L29.8561 19.9476L30.9228 21.2038L30.3496 21.6905C29.8943 22.0772 29.6452 22.5336 29.6023 23.0599C29.5606 23.571 29.7607 24.0868 30.2025 24.6072L33.4338 28.4123L32.0557 29.5826Z" fill="white"/>
<path d="M47.0077 19.9508L44.1583 8.37638L45.8673 7.95567L51.7014 12.9128L50.8469 13.1231L53.6353 6.04333L55.3443 5.62262L58.1937 17.197L56.376 17.6445L54.0582 8.22963L54.7877 8.24778L51.8907 15.2884L51.7043 15.3343L45.9632 10.4202L46.5232 10.0846L48.8409 19.4995L47.0077 19.9508Z" fill="white"/>
<path d="M68.6452 17.6645C67.8183 17.5727 67.082 17.2924 66.4365 16.8236C65.8016 16.3559 65.3204 15.7605 64.9929 15.0372C64.6654 14.314 64.5494 13.523 64.6448 12.6643C64.7413 11.795 65.0281 11.0488 65.5052 10.4256C65.9834 9.79187 66.583 9.32186 67.3039 9.01558C68.0259 8.6987 68.8057 8.58677 69.6432 8.67981C70.4914 8.77402 71.2276 9.05435 71.8519 9.5208C72.488 9.97782 72.9645 10.5674 73.2814 11.2894C73.61 12.0021 73.7261 12.7931 73.6295 13.6624C73.5329 14.5317 73.2455 15.2832 72.7673 15.917C72.2891 16.5507 71.6889 17.026 70.9669 17.3429C70.246 17.6492 69.4721 17.7564 68.6452 17.6645ZM68.8306 15.9948C69.3395 16.0513 69.8036 15.9795 70.223 15.7792C70.6423 15.579 70.9868 15.2792 71.2566 14.8798C71.5381 14.4711 71.7089 13.9964 71.7689 13.4557C71.829 12.915 71.766 12.4197 71.5799 11.9697C71.4043 11.5209 71.134 11.1529 70.7688 10.8654C70.4036 10.578 69.9666 10.4061 69.4578 10.3495C68.9595 10.2942 68.4954 10.3661 68.0654 10.5651C67.6461 10.7654 67.2963 11.0646 67.0159 11.4628C66.7462 11.8621 66.5813 12.3321 66.5212 12.8728C66.4612 13.4134 66.5183 13.9135 66.6927 14.3729C66.8788 14.8228 67.1544 15.1915 67.5196 15.4789C67.8954 15.7675 68.3324 15.9395 68.8306 15.9948Z" fill="white"/>
<path d="M79.3934 19.863L82.6216 11.8315L84.2249 12.476L83.5745 14.0941L83.5215 13.7969C83.9105 13.344 84.3487 13.0833 84.8361 13.0148C85.3274 12.9364 85.8502 13.0085 86.4045 13.2313L86.8944 13.4282L86.2798 14.9573L85.582 14.6769C85.0278 14.4541 84.5078 14.4463 84.0222 14.6535C83.5505 14.8547 83.1873 15.272 82.9327 15.9055L81.0709 20.5373L79.3934 19.863Z" fill="white"/>
<path d="M91.7911 26.7912C91.1 26.2727 90.6041 25.6539 90.3035 24.9349C90.0177 24.2138 89.9304 23.4682 90.0415 22.6981C90.1589 21.9194 90.4737 21.1888 90.9858 20.5062C91.5108 19.8066 92.1242 19.3 92.8261 18.9866C93.5366 18.6795 94.263 18.5644 95.0054 18.6413C95.7542 18.7097 96.4528 18.9872 97.1012 19.4737C97.6217 19.8642 98.0195 20.3027 98.2946 20.7891C98.5697 21.2756 98.7296 21.7823 98.7743 22.3092C98.8254 22.8276 98.7731 23.3417 98.6172 23.8516C98.47 24.3678 98.2267 24.852 97.8874 25.3043C97.8042 25.4152 97.7135 25.5272 97.6153 25.6402C97.5172 25.7533 97.4169 25.8514 97.3145 25.9346L91.7984 21.796L92.6626 20.6441L97.3596 24.1682L96.2748 24.1744C96.6738 23.8203 96.9224 23.4267 97.0206 22.9937C97.1337 22.5585 97.1157 22.1382 96.9664 21.7329C96.8321 21.3254 96.573 20.9776 96.189 20.6896C95.8051 20.4015 95.3902 20.2435 94.9443 20.2157C94.5048 20.1794 94.0696 20.2796 93.6386 20.5163C93.2141 20.7445 92.83 21.1231 92.4864 21.6521C92.0917 22.0894 91.8484 22.5469 91.7566 23.0248C91.6733 23.509 91.7159 23.9677 91.8843 24.4008C92.0613 24.8403 92.3546 25.2137 92.7642 25.5209C93.1822 25.8346 93.6067 26.0064 94.0377 26.0364C94.4771 26.0727 94.8942 26.0056 95.2889 25.835L96.0342 27.2943C95.6545 27.5161 95.2203 27.6504 94.7318 27.6973C94.2582 27.742 93.7632 27.6907 93.247 27.5434C92.7457 27.394 92.2604 27.1433 91.7911 26.7912Z" fill="white"/>
<path d="M103.449 38.5921L116.014 37.2528L117.018 39.362L108.058 48.271L107.191 46.4508L109.211 44.4788L107.127 40.1016L104.316 40.4123L103.449 38.5921ZM108.878 39.8705L110.481 43.2365L115.207 38.6472L115.434 39.1239L108.878 39.8705Z" fill="white"/>
<path d="M106.667 58.8182C106.596 58.1929 106.631 57.6038 106.773 57.0511C106.914 56.4984 107.144 56.0109 107.461 55.5887C107.768 55.1676 108.149 54.8347 108.604 54.5901L109.475 56.1663C109.089 56.3602 108.785 56.6682 108.565 57.0903C108.345 57.523 108.268 58.0308 108.334 58.6138C108.386 59.0696 108.522 59.4675 108.743 59.8075C108.953 60.1487 109.24 60.4062 109.603 60.5798C109.955 60.7547 110.365 60.8158 110.831 60.7631L112.771 60.5441L112.441 60.9034C111.856 60.6688 111.391 60.3027 111.045 59.8051C110.7 59.3181 110.491 58.746 110.416 58.0888C110.327 57.2939 110.431 56.5575 110.73 55.8796C111.03 55.2017 111.481 54.6408 112.086 54.1968C112.692 53.7634 113.398 53.5012 114.203 53.4103C115.019 53.3181 115.766 53.4163 116.442 53.7048C117.12 54.004 117.68 54.4453 118.122 55.0287C118.563 55.6122 118.83 56.3067 118.92 57.1122C118.995 57.7694 118.917 58.3685 118.689 58.9096C118.472 59.4601 118.117 59.9296 117.624 60.318L117.152 60.1298L119.044 59.9161L119.236 61.6173L111.032 62.5438C110.29 62.6276 109.607 62.5223 108.984 62.2277C108.351 61.945 107.829 61.5101 107.419 60.923C107.01 60.336 106.759 59.6344 106.667 58.8182ZM112.109 58.1069C112.163 58.5839 112.322 58.9953 112.587 59.3411C112.862 59.6858 113.202 59.9426 113.608 60.1114C114.025 60.2897 114.477 60.3514 114.965 60.2963C115.452 60.2412 115.88 60.0802 116.247 59.8134C116.614 59.5465 116.888 59.215 117.068 58.8189C117.26 58.4216 117.329 57.9897 117.276 57.5234C117.221 57.0358 117.055 56.6144 116.779 56.2592C116.514 55.9027 116.172 55.6354 115.755 55.4571C115.349 55.2882 114.897 55.2319 114.399 55.2881C113.922 55.342 113.5 55.4971 113.131 55.7533C112.764 56.0202 112.486 56.3576 112.296 56.7655C112.116 57.1722 112.054 57.6194 112.109 58.1069Z" fill="white"/>
<path d="M109.353 73.2611C109.524 72.4142 109.869 71.7005 110.389 71.1199C110.917 70.5519 111.553 70.1525 112.296 69.9218C113.05 69.6931 113.845 69.6633 114.681 69.8322C115.538 70.0054 116.259 70.3415 116.844 70.8405C117.427 71.35 117.843 71.9564 118.093 72.6597C118.353 73.3652 118.403 74.1152 118.242 74.9099C118.113 75.5476 117.888 76.0953 117.567 76.5528C117.247 77.0103 116.858 77.3725 116.401 77.6394C115.955 77.9084 115.468 78.0821 114.941 78.1606C114.412 78.2495 113.87 78.238 113.316 78.1261C113.18 78.0987 113.04 78.0649 112.896 78.0249C112.751 77.9849 112.62 77.9365 112.5 77.8798L113.866 71.1203L115.277 71.4054L114.115 77.1612L113.643 76.1844C114.134 76.3924 114.596 76.4477 115.029 76.3502C115.471 76.2653 115.843 76.0683 116.144 75.7593C116.455 75.4629 116.657 75.0794 116.752 74.6089C116.847 74.1384 116.812 73.6959 116.645 73.2814C116.489 72.869 116.211 72.5191 115.812 72.2317C115.424 71.9465 114.917 71.7625 114.292 71.6797C113.727 71.5112 113.209 71.4883 112.738 71.6108C112.265 71.7438 111.87 71.9794 111.551 72.3177C111.23 72.6664 111.019 73.0917 110.918 73.5936C110.814 74.1059 110.842 74.563 111 74.965C111.156 75.3774 111.396 75.7251 111.72 76.0081L110.722 77.3084C110.359 77.0609 110.051 76.7266 109.799 76.3057C109.555 75.8973 109.388 75.4284 109.299 74.8989C109.219 74.3821 109.236 73.8361 109.353 73.2611Z" fill="white"/>
<path d="M106.642 82.9115L114.234 87.0694L113.404 88.585L111.916 87.7703L112.213 87.6955C112.587 88.1439 112.784 88.6405 112.801 89.1854C112.829 89.7354 112.694 90.2817 112.396 90.8243C112.089 91.3856 111.696 91.8149 111.217 92.112C110.738 92.4091 110.217 92.5615 109.653 92.569C109.09 92.5766 108.527 92.4267 107.966 92.1192L103.068 89.437L103.929 87.8653L108.406 90.317C108.789 90.527 109.15 90.6336 109.489 90.6367C109.837 90.645 110.153 90.5566 110.437 90.3715C110.725 90.2009 110.959 89.9518 111.138 89.6244C111.317 89.2969 111.404 88.9612 111.398 88.6173C111.396 88.2879 111.298 87.9787 111.103 87.6898C110.909 87.4008 110.624 87.1539 110.25 86.949L105.773 84.4973L106.642 82.9115Z" fill="white"/>
<path d="M95.9743 97.5113C96.5957 96.9111 97.2852 96.5195 98.0428 96.3365C98.8 96.1686 99.5578 96.1931 100.316 96.4099C101.066 96.6342 101.742 97.057 102.342 97.6785C102.935 98.2923 103.33 98.9781 103.528 99.7359C103.726 100.494 103.717 101.244 103.5 101.987C103.291 102.738 102.876 103.413 102.255 104.014C101.833 104.421 101.363 104.726 100.847 104.928C100.338 105.138 99.823 105.242 99.3025 105.241C98.7744 105.247 98.2783 105.14 97.8144 104.921L98.4425 103.291C98.8841 103.487 99.3434 103.541 99.8202 103.451C100.297 103.376 100.719 103.161 101.087 102.805C101.44 102.464 101.674 102.069 101.787 101.618C101.9 101.182 101.885 100.729 101.743 100.259C101.607 99.7968 101.351 99.3699 100.973 98.9786C100.595 98.5873 100.173 98.3122 99.7085 98.1532C99.251 98.002 98.7989 97.9715 98.3523 98.0618C97.898 98.1595 97.4943 98.3788 97.1414 98.7197C96.7655 99.0828 96.532 99.4936 96.4411 99.9522C96.3499 100.426 96.3945 100.894 96.5751 101.358L94.9133 101.917C94.7174 101.469 94.6279 100.977 94.6447 100.442C94.6613 99.9213 94.7796 99.4066 94.9997 98.8975C95.2198 98.3883 95.5446 97.9263 95.9743 97.5113Z" fill="white"/>
<path d="M86.0246 101.073C86.2151 100.977 86.4153 100.9 86.625 100.842C86.8204 100.779 87.0111 100.743 87.1972 100.733L87.8949 102.119C87.7662 102.148 87.6161 102.194 87.4445 102.257C87.2681 102.309 87.1037 102.374 86.9513 102.451C86.5035 102.676 86.2251 102.942 86.1162 103.248C85.993 103.548 85.9487 103.947 85.9834 104.443L86.0588 105.874L85.404 104.502L92.978 111.222L91.2487 112.092L85.532 106.891L86.118 106.596L86.904 114.279L85.1604 115.157L84.2601 104.862C84.2109 104.314 84.2382 103.799 84.3419 103.317C84.4312 102.83 84.6137 102.398 84.8894 102.02C85.1507 101.638 85.5291 101.322 86.0246 101.073Z" fill="white"/>
<path d="M51.5 49.5L76.5 74.5" stroke="#F5900D" stroke-width="4" stroke-linecap="round" stroke-linejoin="round"/>
<path d="M76.5 49.5V74.5H51.5" stroke="#F5900D" stroke-width="4" stroke-linecap="round" stroke-linejoin="round"/>
</svg>
