<svg width="18" height="18" viewBox="0 0 18 18" fill="none" xmlns="http://www.w3.org/2000/svg">
<path d="M13 1H5C2.79086 1 1 2.79086 1 5V13C1 15.2091 2.79086 17 5 17H13C15.2091 17 17 15.2091 17 13V5C17 2.79086 15.2091 1 13 1Z" stroke="white" stroke-width="2" stroke-linecap="round" stroke-linejoin="round"/>
<path d="M12.2973 8.51108C12.4001 9.20461 12.2816 9.91292 11.9587 10.5353C11.6358 11.1576 11.1249 11.6622 10.4986 11.9775C9.87236 12.2927 9.16264 12.4024 8.47042 12.291C7.77821 12.1796 7.13874 11.8528 6.64297 11.357C6.1472 10.8613 5.82038 10.2218 5.70899 9.52959C5.59761 8.83737 5.70733 8.12765 6.02254 7.50139C6.33776 6.87512 6.84243 6.3642 7.46476 6.04128C8.08709 5.71836 8.7954 5.5999 9.48893 5.70275C10.1964 5.80765 10.8513 6.1373 11.357 6.643C11.8627 7.1487 12.1924 7.80364 12.2973 8.51108Z" stroke="white" stroke-width="2" stroke-linecap="round" stroke-linejoin="round"/>
</svg>
