<svg width="180" height="176" viewBox="0 0 180 176" fill="none" xmlns="http://www.w3.org/2000/svg">
<circle cx="90" cy="88" r="48" fill="white"/>
<path d="M78 77.6846C78 76.1665 79.6253 75.2018 80.958 75.9287L99.8691 86.2441C101.259 87.0022 101.259 88.9978 99.8691 89.7559L80.958 100.071C79.6253 100.798 78 99.8335 78 98.3154V77.6846Z" fill="black" stroke="black" stroke-width="2" stroke-linecap="round" stroke-linejoin="round"/>
<path d="M67.7006 158.698L66.3574 170.988L64.4981 170.251L65.8319 159.678L66.293 159.861L59.9318 168.44L58.1023 167.715L59.3468 157.107L59.8227 157.296L53.5359 165.905L51.6915 165.174L59.1183 155.296L61.0965 156.08L59.9259 166.545L59.4053 166.339L65.7373 157.919L67.7006 158.698Z" fill="white"/>
<path d="M48.6714 148.976C49.1479 149.318 49.5091 149.702 49.7548 150.128C49.9857 150.556 50.095 150.989 50.0828 151.427C50.0643 151.873 49.9089 152.3 49.6166 152.707C49.3429 153.088 49.0148 153.372 48.6325 153.557C48.2414 153.736 47.7936 153.801 47.2891 153.754C46.7845 153.707 46.2325 153.534 45.6331 153.235L42.9003 151.884L43.7308 150.727L46.159 151.899C46.5987 152.11 46.9748 152.189 47.2874 152.138C47.5938 152.095 47.8465 151.935 48.0456 151.658C48.2384 151.39 48.2974 151.097 48.2225 150.781C48.1327 150.467 47.9276 150.195 47.607 149.965C47.2084 149.678 46.7996 149.516 46.3805 149.478C45.9529 149.434 45.5541 149.495 45.1841 149.663C44.808 149.839 44.4924 150.105 44.2374 150.46L42.9403 152.267C42.6915 152.614 42.6193 152.989 42.7237 153.392C42.8133 153.798 43.0703 154.153 43.4949 154.458C43.8848 154.738 44.3018 154.879 44.7457 154.883C45.1747 154.889 45.5736 154.781 45.9424 154.56L46.7256 156.048C46.3468 156.302 45.9168 156.452 45.4355 156.501C44.9481 156.558 44.4565 156.52 43.9609 156.388C43.4565 156.249 42.9834 156.021 42.5415 155.703C41.9869 155.305 41.572 154.85 41.2967 154.337C41.0128 153.818 40.8876 153.288 40.9211 152.748C40.9398 152.21 41.1233 151.698 41.4716 151.213L44.8682 146.482L46.2719 147.489L45.3574 148.763L45.0865 148.51C45.4564 148.342 45.846 148.247 46.2552 148.226C46.6558 148.198 47.0612 148.246 47.4713 148.37C47.8728 148.488 48.2728 148.69 48.6714 148.976Z" fill="white"/>
<path d="M36.8265 138.883C37.4571 139.534 37.7628 140.218 37.7436 140.935C37.7245 141.651 37.3815 142.332 36.7147 142.977L33.7028 145.893L34.76 146.985L33.5875 148.12L33.4205 147.948C33.1386 147.657 32.8354 147.512 32.511 147.514C32.1866 147.517 31.8788 147.659 31.5876 147.941L31.1048 148.408L29.8472 147.109L31.2727 145.729L29.9039 144.315L31.0765 143.18L32.4453 144.594L35.3997 141.734C35.6143 141.526 35.7649 141.314 35.8514 141.096C35.9302 140.886 35.9376 140.664 35.8735 140.429C35.8018 140.202 35.6472 139.965 35.4098 139.72C35.3504 139.659 35.2798 139.593 35.198 139.524C35.1161 139.455 35.038 139.39 34.9635 139.328L36.0786 138.249C36.1978 138.341 36.3282 138.445 36.4696 138.56C36.6111 138.676 36.73 138.783 36.8265 138.883Z" fill="white"/>
<path d="M29.5909 129.568C30.0717 130.286 30.3352 131.034 30.3812 131.812C30.4125 132.587 30.2544 133.328 29.9068 134.036C29.5534 134.735 29.0177 135.325 28.2998 135.806C27.5909 136.281 26.8459 136.549 26.065 136.61C25.2842 136.67 24.5472 136.529 23.8542 136.184C23.1523 135.845 22.5609 135.317 22.0801 134.599C21.7536 134.112 21.5365 133.596 21.4288 133.052C21.3123 132.514 21.3008 131.989 21.3943 131.477C21.482 130.956 21.6747 130.486 21.9726 130.069L23.4656 130.975C23.1943 131.375 23.0607 131.818 23.0647 132.303C23.0539 132.785 23.191 133.239 23.4759 133.664C23.749 134.072 24.0973 134.371 24.5207 134.563C24.9294 134.751 25.3777 134.817 25.8658 134.76C26.3449 134.708 26.8105 134.531 27.2624 134.228C27.7144 133.926 28.0597 133.56 28.2984 133.13C28.5283 132.707 28.6382 132.267 28.6284 131.811C28.6126 131.347 28.4681 130.911 28.1951 130.503C27.9042 130.069 27.5411 129.767 27.1059 129.596C26.6558 129.422 26.1868 129.383 25.6989 129.479L25.4422 127.745C25.9182 127.631 26.4182 127.63 26.9421 127.741C27.4511 127.85 27.9368 128.057 28.399 128.364C28.8611 128.671 29.2584 129.072 29.5909 129.568Z" fill="white"/>
<path d="M24.2519 120.778L13.0555 125.398L12.3659 123.726L17.1285 121.761L17.0313 122.113C16.447 122.123 15.9372 121.964 15.5018 121.636C15.0566 121.312 14.716 120.864 14.48 120.293C14.2359 119.701 14.1485 119.125 14.2177 118.566C14.2869 118.007 14.4954 117.505 14.8432 117.062C15.191 116.618 15.6558 116.276 16.2375 116.036L21.4142 113.901L22.0977 115.557L17.3795 117.504C16.9753 117.671 16.6676 117.89 16.4566 118.162C16.2317 118.427 16.1002 118.724 16.0622 119.051C16.0142 119.383 16.0615 119.721 16.2039 120.066C16.3422 120.401 16.5472 120.674 16.8189 120.885C17.0766 121.09 17.381 121.213 17.7321 121.253C18.0791 121.283 18.4498 121.216 18.8442 121.053L23.5623 119.107L24.2519 120.778Z" fill="white"/>
<path d="M17.5922 93.8276C17.6382 94.6904 17.5266 95.5028 17.2575 96.2649C16.9877 97.0163 16.591 97.6891 16.0672 98.2831C15.5428 98.8665 14.9164 99.3379 14.1878 99.6972C13.4587 100.046 12.6521 100.244 11.768 100.291C10.8839 100.338 10.0608 100.227 9.29875 99.9578C8.52545 99.6786 7.85243 99.2765 7.27968 98.7516C6.69627 98.2272 6.23557 97.6002 5.89758 96.8705C5.54894 96.1413 5.35162 95.3454 5.30563 94.4826C5.25907 93.6092 5.37065 92.7967 5.64037 92.0453C5.89886 91.2838 6.29029 90.6114 6.81465 90.028C7.33843 89.4339 7.9649 88.9625 8.69404 88.6139C9.42318 88.2653 10.2298 88.0674 11.1139 88.0203C11.9979 87.9731 12.8213 88.0895 13.5839 88.3693C14.346 88.6384 15.0188 89.0352 15.6022 89.5595C16.1856 90.0839 16.6516 90.7106 17.0002 91.4398C17.3489 92.1689 17.5462 92.9649 17.5922 93.8276ZM15.8666 93.9196C15.8337 93.3018 15.6918 92.7433 15.4408 92.2439C15.1893 91.7339 14.8563 91.2977 14.4418 90.9352C14.0166 90.5734 13.532 90.3001 12.9881 90.1155C12.4335 89.9314 11.842 89.8561 11.2135 89.8896C10.5851 89.9231 10.0102 90.0606 9.48902 90.302C8.9678 90.5434 8.51503 90.8666 8.13071 91.2717C7.7464 91.6767 7.45631 92.1461 7.26045 92.68C7.06402 93.2032 6.98227 93.7737 7.01521 94.3915C7.04814 95.0093 7.19036 95.5732 7.44186 96.0832C7.6928 96.5825 8.03087 97.0131 8.45607 97.375C8.88127 97.7369 9.36583 98.0101 9.90977 98.1948C10.4531 98.3688 11.039 98.439 11.6675 98.4055C12.2959 98.372 12.8764 98.2396 13.4088 98.0083C13.93 97.7668 14.3828 97.4436 14.7671 97.0386C15.1408 96.6341 15.4255 96.165 15.6214 95.6311C15.8173 95.0973 15.899 94.5268 15.8666 93.9196Z" fill="white"/>
<path d="M18.4634 77.5056C18.3477 78.1459 18.1045 78.6819 17.7338 79.1135C17.3527 79.5433 16.8803 79.8482 16.3166 80.0281C15.7444 80.1957 15.1171 80.2179 14.4348 80.0946L9.17599 79.1444L9.49745 77.3653L14.5989 78.287C14.9872 78.3571 15.3426 78.3401 15.665 78.2357C15.9873 78.1314 16.2581 77.9527 16.4772 77.6996C16.6859 77.4446 16.8234 77.1334 16.8898 76.7661C16.958 76.3882 16.9338 76.0424 16.8171 75.7286C16.7003 75.4149 16.504 75.1517 16.228 74.9393C15.954 74.7164 15.6123 74.5679 15.2029 74.4939L10.1802 73.5864L10.4988 71.823L19.0169 73.362L18.7125 75.0468L17.0435 74.7452L17.2981 74.5961C17.7869 74.8904 18.1313 75.294 18.3312 75.8071C18.5312 76.3201 18.5752 76.8863 18.4634 77.5056Z" fill="white"/>
<path d="M21.0223 66.4221L12.8943 63.4451L13.4886 61.8225L15.1263 62.4223L14.8308 62.4845C14.366 62.1098 14.0918 61.6799 14.0082 61.1949C13.9146 60.7062 13.9705 60.1814 14.1759 59.6205L14.3575 59.1247L15.905 59.6915L15.6463 60.3977C15.4409 60.9585 15.4492 61.4785 15.6714 61.9574C15.8872 62.4227 16.3156 62.7727 16.9566 63.0075L21.6441 64.7244L21.0223 66.4221Z" fill="white"/>
<path d="M28.2353 50.7542L21.2068 40.2538L22.607 38.3839L34.661 42.1735L33.4526 43.7872L30.7672 42.9155L27.8612 46.7961L29.4437 49.1405L28.2353 50.7542ZM26.8426 45.3536L29.0772 42.3696L22.8165 40.3198L23.1329 39.8971L26.8426 45.3536Z" fill="white"/>
<path d="M44.6184 37.3917C44.1409 37.8016 43.6338 38.1033 43.0971 38.2969C42.5603 38.4904 42.0282 38.5747 41.5006 38.5495C40.98 38.5325 40.4905 38.4044 40.0322 38.1652L40.8468 36.5594C41.2241 36.7697 41.6493 36.8476 42.1225 36.7929C42.6037 36.7312 43.067 36.5094 43.5121 36.1273C43.8602 35.8286 44.1128 35.4923 44.2699 35.1185C44.4339 34.7528 44.4857 34.371 44.4253 33.973C44.3718 33.5831 44.1923 33.2101 43.8866 32.854L42.6153 31.3728L43.0978 31.4436C43.2324 32.059 43.1911 32.6497 42.974 33.2156C42.7649 33.7745 42.4095 34.2693 41.9077 34.7001C41.3006 35.2211 40.6327 35.5484 39.9039 35.6819C39.1751 35.8154 38.4571 35.7569 37.7501 35.5063C37.0511 35.2487 36.4376 34.8124 35.9096 34.1972C35.3747 33.574 35.0364 32.9014 34.8948 32.1796C34.7613 31.4508 34.8117 30.7398 35.0461 30.0466C35.2805 29.3534 35.7053 28.7429 36.3205 28.2149C36.8223 27.7842 37.3613 27.5114 37.9374 27.3964C38.5146 27.2665 39.1024 27.2962 39.7007 27.4855L39.8103 27.9818L38.5703 26.537L39.8694 25.422L45.2464 31.6869C45.7327 32.2535 46.0293 32.8775 46.1362 33.5588C46.2581 34.2414 46.1915 34.9171 45.9362 35.586C45.6809 36.2549 45.2417 36.8568 44.6184 37.3917ZM40.9713 33.2898C41.3356 32.9771 41.5864 32.6143 41.7238 32.2011C41.8543 31.7799 41.8754 31.3541 41.7872 30.9238C41.7001 30.4784 41.4968 30.0696 41.1772 29.6973C40.8577 29.3249 40.4844 29.062 40.0574 28.9084C39.6303 28.7548 39.2022 28.7145 38.773 28.7877C38.3369 28.8528 37.9408 29.0382 37.5846 29.3438C37.2123 29.6634 36.9569 30.0373 36.8183 30.4654C36.6728 30.8855 36.6436 31.3182 36.7306 31.7636C36.8188 32.1939 37.0262 32.5993 37.3527 32.9797C37.6653 33.344 38.0311 33.6064 38.45 33.7669C38.8771 33.9205 39.3127 33.9613 39.7569 33.8893C40.1942 33.8092 40.599 33.6093 40.9713 33.2898Z" fill="white"/>
<path d="M54.9343 26.1872C54.1776 26.6043 53.4098 26.8022 52.6307 26.781C51.8559 26.7453 51.1402 26.5186 50.4837 26.101C49.8221 25.674 49.2853 25.0869 48.8733 24.3395C48.4511 23.5735 48.2412 22.8062 48.2438 22.0374C48.2557 21.2636 48.4492 20.554 48.8243 19.9087C49.1942 19.2541 49.7342 18.7312 50.4441 18.3398C51.014 18.0257 51.5771 17.8432 52.1337 17.7922C52.6902 17.7412 53.2178 17.8035 53.7166 17.9792C54.2103 18.1456 54.6575 18.4045 55.0583 18.7561C55.4685 19.1024 55.81 19.5231 56.0829 20.0182C56.1499 20.1397 56.2147 20.2684 56.2775 20.4043C56.3402 20.5402 56.3885 20.672 56.4223 20.7995L50.383 24.1285L49.6879 22.8674L54.8303 20.0327L54.3903 21.0243C54.2314 20.5151 53.9748 20.1268 53.6203 19.8593C53.27 19.5774 52.8794 19.4212 52.4485 19.3908C52.0218 19.3459 51.5983 19.4393 51.1779 19.671C50.7575 19.9027 50.4431 20.2161 50.2346 20.6112C50.0209 20.9969 49.9335 21.4349 49.9723 21.9251C50.0059 22.4059 50.1933 22.9116 50.5345 23.4421C50.771 23.9817 51.0882 24.3914 51.4862 24.6714C51.8934 24.9463 52.3291 25.0959 52.7932 25.1202C53.2666 25.1394 53.7275 25.0254 54.1759 24.7783C54.6336 24.5259 54.9646 24.2095 55.169 23.8289C55.3826 23.4432 55.4928 23.0353 55.4994 22.6054L57.1361 22.5253C57.1823 22.9627 57.1264 23.4137 56.9684 23.8784C56.8146 24.3285 56.5645 24.7587 56.2182 25.1689C55.876 25.5645 55.448 25.904 54.9343 26.1872Z" fill="white"/>
<path d="M64.1944 21.6038L61.5957 13.3471L63.244 12.8284L63.7532 14.4461L63.4875 14.2949C63.5277 13.7119 63.73 13.2177 64.0944 12.8123C64.4556 12.3967 64.9313 12.096 65.5214 11.9103C66.1319 11.7181 66.7128 11.6807 67.2641 11.7979C67.8154 11.9151 68.2969 12.1661 68.7088 12.5509C69.1206 12.9357 69.4226 13.4333 69.6148 14.0438L71.2912 19.3702L69.5819 19.9082L68.0495 15.0396C67.9182 14.6225 67.7315 14.2955 67.4892 14.0586C67.2437 13.8116 66.9545 13.6566 66.6216 13.5936C66.2956 13.5173 65.9546 13.5352 65.5985 13.6473C65.2423 13.7594 64.9475 13.9416 64.7138 14.1941C64.4871 14.4332 64.3439 14.7243 64.2842 15.0674C64.2244 15.4105 64.2586 15.7855 64.3867 16.1925L65.919 21.061L64.1944 21.6038Z" fill="white"/>
<path d="M82.221 17.6587C81.3619 17.7501 80.5773 17.6352 79.8673 17.3139C79.1668 16.9808 78.5842 16.4958 78.1194 15.8587C77.6653 15.2206 77.3925 14.4719 77.3011 13.6128C77.2107 12.7642 77.3204 11.9802 77.6299 11.2607C77.9395 10.5412 78.4081 9.95501 79.0356 9.50203C79.6621 9.03844 80.4049 8.76091 81.264 8.66945C81.8474 8.60734 82.4049 8.65526 82.9366 8.81319C83.4672 8.96052 83.9373 9.19473 84.347 9.51584C84.7672 9.83582 85.0929 10.2249 85.324 10.683L83.8268 11.5825C83.5991 11.1562 83.2696 10.832 82.8383 10.6097C82.4165 10.3757 81.951 10.2858 81.4419 10.34C80.954 10.392 80.5268 10.5608 80.1603 10.8465C79.8033 11.1205 79.5366 11.4868 79.3601 11.9454C79.1826 12.3934 79.1226 12.8879 79.1802 13.4288C79.2377 13.9697 79.4011 14.4458 79.6701 14.857C79.938 15.2575 80.2759 15.5594 80.6837 15.7627C81.1021 15.9649 81.5553 16.04 82.0432 15.9881C82.5629 15.9328 82.9996 15.7522 83.3532 15.4464C83.7163 15.1288 83.969 14.7318 84.1114 14.2554L85.7661 14.8355C85.6449 15.3097 85.4132 15.7527 85.0709 16.1646C84.738 16.5647 84.3283 16.898 83.8418 17.1643C83.3553 17.4306 82.815 17.5954 82.221 17.6587Z" fill="white"/>
<path d="M92.923 20.6167C92.7106 20.5969 92.5001 20.5559 92.2917 20.4936C92.0928 20.443 91.9119 20.3726 91.7489 20.2824L91.8927 18.7371C92.0172 18.7808 92.1687 18.8217 92.3473 18.8598C92.5249 18.9084 92.6987 18.9407 92.8686 18.9565C93.3678 19.0029 93.7446 18.9255 93.999 18.7242C94.263 18.5346 94.5119 18.2203 94.7456 17.7814L95.4407 16.5284L95.2679 18.0389L92.4119 8.3244L94.3396 8.50381L96.4269 15.9453L95.7738 15.8845L99.1826 8.95456L101.126 9.13545L96.4291 18.3398C96.1798 18.8308 95.8834 19.2531 95.5398 19.6068C95.2059 19.9721 94.8219 20.2417 94.3879 20.4156C93.9636 20.601 93.4753 20.6681 92.923 20.6167Z" fill="white"/>
<path d="M114.273 21.2402L118.962 10.2815L122.949 11.9874C123.684 12.3021 124.273 12.7164 124.714 13.2302C125.17 13.7384 125.443 14.3195 125.534 14.9735C125.63 15.6177 125.525 16.2978 125.218 17.0136C124.916 17.7197 124.494 18.2585 123.952 18.6299C123.42 19.0056 122.816 19.2111 122.139 19.2464C121.463 19.2818 120.757 19.1421 120.022 18.8274L117.771 17.8643L116.008 21.983L114.273 21.2402ZM118.432 16.3198L120.727 17.3018C121.119 17.4696 121.496 17.5381 121.857 17.5071C122.218 17.476 122.541 17.3589 122.825 17.1557C123.114 16.9426 123.34 16.6449 123.503 16.2624C123.667 15.88 123.724 15.5158 123.675 15.1699C123.63 14.8141 123.492 14.4998 123.261 14.2268C123.034 13.944 122.724 13.7187 122.332 13.5508L120.037 12.5688L118.432 16.3198Z" fill="white"/>
<path d="M131.247 30.4129C130.568 29.9318 130.06 29.3299 129.722 28.607C129.394 27.8903 129.261 27.1362 129.325 26.3449C129.389 25.5535 129.671 24.8054 130.17 24.1004C130.676 23.3868 131.289 22.873 132.008 22.559C132.733 22.2364 133.485 22.1157 134.264 22.1971C135.05 22.2698 135.786 22.5497 136.474 23.0369C137.17 23.5303 137.678 24.1323 137.998 24.8428C138.333 25.5508 138.464 26.2974 138.392 27.0826C138.334 27.8652 138.052 28.6134 137.546 29.327C137.041 30.0407 136.425 30.5589 135.7 30.8815C134.974 31.2042 134.219 31.3292 133.434 31.2565C132.655 31.1751 131.926 30.8939 131.247 30.4129ZM132.218 29.0421C132.636 29.3381 133.077 29.5001 133.541 29.5282C134.005 29.5562 134.451 29.4609 134.881 29.2422C135.325 29.0211 135.704 28.6886 136.019 28.2447C136.333 27.8009 136.518 27.337 136.573 26.8532C136.637 26.3756 136.579 25.9226 136.399 25.4942C136.219 25.0659 135.92 24.7037 135.502 24.4077C135.093 24.1178 134.652 23.9558 134.18 23.9216C133.716 23.8936 133.265 23.9858 132.827 24.1983C132.397 24.4169 132.025 24.7482 131.711 25.192C131.396 25.6359 131.204 26.101 131.134 26.5873C131.079 27.0711 131.141 27.5272 131.321 27.9555C131.51 28.3901 131.809 28.7523 132.218 29.0421Z" fill="white"/>
<path d="M140.067 37.4216L146.249 31.3627L147.459 32.5968L146.213 33.8175L146.284 33.5241C146.822 33.2655 147.328 33.2027 147.802 33.3357C148.284 33.4612 148.734 33.7373 149.152 34.1639L149.521 34.541L148.344 35.6945L147.818 35.1575C147.4 34.7308 146.927 34.5149 146.399 34.5096C145.886 34.5044 145.386 34.7408 144.898 35.2186L141.333 38.7128L140.067 37.4216Z" fill="white"/>
<path d="M149.208 48.3659C148.679 47.6295 148.476 46.9083 148.6 46.2025C148.723 45.4966 149.162 44.873 149.915 44.3316L153.32 41.8861L152.433 40.6515L153.759 39.6995L153.899 39.8944C154.135 40.2236 154.414 40.4107 154.736 40.4558C155.057 40.5008 155.382 40.4051 155.711 40.1686L156.257 39.7766L157.312 41.2451L155.7 42.4025L156.849 44.0009L155.523 44.953L154.375 43.3545L151.035 45.7534C150.793 45.9276 150.613 46.116 150.495 46.3184C150.387 46.5146 150.347 46.7335 150.376 46.9753C150.414 47.2108 150.533 47.4671 150.732 47.7444C150.781 47.8137 150.842 47.8885 150.913 47.9689C150.984 48.0493 151.051 48.1254 151.116 48.1972L149.855 49.1026C149.751 48.9937 149.637 48.8719 149.514 48.7371C149.391 48.6022 149.289 48.4785 149.208 48.3659Z" fill="white"/>
<path d="M153.822 55.794L160.104 52.6518L159.388 51.2209L160.848 50.4908L161.563 51.9218L161.964 51.7214C162.546 51.4303 163.092 51.3062 163.603 51.3491C164.123 51.3871 164.593 51.5636 165.012 51.8784C165.437 52.2027 165.788 52.6415 166.064 53.1948C166.117 53.2997 166.167 53.4238 166.215 53.5669C166.272 53.7052 166.313 53.8221 166.336 53.9175L164.934 54.6189C164.915 54.533 164.882 54.4424 164.834 54.347C164.796 54.2468 164.762 54.1681 164.734 54.1109C164.519 53.6816 164.247 53.3883 163.918 53.2309C163.598 53.0687 163.214 53.0998 162.766 53.3241L162.365 53.5245L163.253 55.2989L161.793 56.029L160.906 54.2545L154.624 57.3967L153.822 55.794Z" fill="white"/>
<path d="M159.087 69.4126C158.858 68.6126 158.839 67.825 159.028 67.05C159.22 66.2852 159.588 65.6142 160.134 65.0369C160.679 64.4597 161.367 64.0525 162.197 63.8152C163.038 63.575 163.838 63.5575 164.595 63.7628C165.363 63.965 166.025 64.3417 166.582 64.8926C167.149 65.4407 167.548 66.1198 167.779 66.9301C168.014 67.7506 168.033 68.5382 167.838 69.2927C167.657 70.0546 167.292 70.719 166.744 71.286C166.209 71.8603 165.521 72.2675 164.68 72.5077C163.839 72.7479 163.034 72.7668 162.267 72.5646C161.499 72.3623 160.832 71.9871 160.265 71.4391C159.708 70.8881 159.315 70.2126 159.087 69.4126ZM160.702 68.9512C160.843 69.4436 161.085 69.8458 161.43 70.1579C161.774 70.47 162.182 70.6752 162.654 70.7734C163.139 70.879 163.643 70.857 164.166 70.7077C164.689 70.5583 165.123 70.3122 165.469 69.9694C165.818 69.6368 166.056 69.2471 166.184 68.8002C166.311 68.3534 166.305 67.8838 166.164 67.3915C166.026 66.9094 165.784 66.5072 165.437 66.1848C165.092 65.8727 164.683 65.6624 164.208 65.5539C163.736 65.4557 163.239 65.4813 162.716 65.6306C162.193 65.78 161.752 66.0225 161.393 66.3579C161.047 66.7008 160.81 67.0956 160.683 67.5425C160.558 67.9996 160.565 68.4692 160.702 68.9512Z" fill="white"/>
<path d="M161.566 80.4406L173.602 79.0813L173.805 80.8779L161.769 82.2371L161.566 80.4406Z" fill="white"/>
<path d="M162.134 89.0596L170.79 89.1189L170.778 90.9269L162.122 90.8675L162.134 89.0596ZM171.974 89.127L174.054 89.1413L174.042 90.9492L171.962 90.935L171.974 89.127Z" fill="white"/>
<path d="M160.911 101.647C161.054 100.828 161.379 100.11 161.887 99.495C162.393 98.8903 163.017 98.4469 163.759 98.1648C164.501 97.8827 165.298 97.8158 166.149 97.9642C167.011 98.1144 167.738 98.4468 168.33 98.9616C168.933 99.4781 169.365 100.106 169.626 100.844C169.898 101.584 169.961 102.37 169.816 103.2C169.67 104.04 169.344 104.758 168.84 105.352C168.345 105.959 167.727 106.398 166.987 106.669C166.255 106.953 165.458 107.02 164.597 106.87C163.735 106.72 163.003 106.386 162.4 105.87C161.797 105.353 161.36 104.725 161.088 103.985C160.827 103.246 160.768 102.467 160.911 101.647ZM162.566 101.936C162.478 102.44 162.521 102.908 162.695 103.339C162.869 103.77 163.147 104.132 163.528 104.426C163.919 104.732 164.382 104.932 164.918 105.026C165.454 105.119 165.952 105.087 166.413 104.929C166.872 104.782 167.256 104.535 167.565 104.188C167.875 103.841 168.073 103.416 168.161 102.911C168.247 102.417 168.204 101.95 168.032 101.508C167.858 101.077 167.581 100.71 167.201 100.405C166.82 100.111 166.361 99.9176 165.825 99.8242C165.289 99.7307 164.786 99.7568 164.317 99.9024C163.856 100.06 163.471 100.313 163.162 100.659C162.85 101.016 162.652 101.442 162.566 101.936Z" fill="white"/>
<path d="M154.1 122.672L166.604 124.564L165.646 126.356L155.042 124.609L155.231 124.256L162.585 132.086L161.627 133.878L153.104 124.535L154.1 122.672Z" fill="white"/>
<path d="M147.651 132.965L154.508 138.248L153.405 139.68L146.548 134.397L147.651 132.965ZM155.446 138.97L157.094 140.24L155.99 141.672L154.343 140.402L155.446 138.97Z" fill="white"/>
<path d="M139.191 142.128C139.801 141.562 140.482 141.198 141.235 141.037C141.988 140.892 142.737 140.938 143.483 141.177C144.221 141.423 144.881 141.858 145.462 142.484C146.043 143.109 146.425 143.802 146.608 144.564C146.791 145.325 146.779 146.072 146.571 146.804C146.363 147.536 145.958 148.181 145.356 148.741C144.848 149.212 144.304 149.528 143.725 149.688C143.145 149.848 142.575 149.853 142.015 149.704L141.931 149.214L145.503 153.059L144.19 154.279L135.946 145.405L137.2 144.24L138.398 145.529L138.017 145.425C137.88 144.839 137.921 144.255 138.138 143.675C138.356 143.094 138.707 142.578 139.191 142.128ZM140.206 143.479C139.839 143.82 139.594 144.215 139.472 144.663C139.342 145.119 139.34 145.579 139.466 146.044C139.592 146.524 139.84 146.964 140.21 147.362C140.58 147.761 140.997 148.037 141.459 148.189C141.914 148.35 142.373 148.382 142.837 148.285C143.293 148.197 143.705 147.982 144.072 147.64C144.439 147.299 144.688 146.901 144.818 146.445C144.948 145.989 144.95 145.529 144.823 145.064C144.697 144.599 144.449 144.167 144.078 143.769C143.708 143.37 143.292 143.087 142.83 142.919C142.376 142.759 141.921 142.723 141.465 142.812C141.001 142.908 140.581 143.13 140.206 143.479Z" fill="white"/>
<path d="M126.93 151.411C127.67 150.965 128.429 150.737 129.208 150.727C129.984 150.733 130.708 150.931 131.381 151.322C132.058 151.723 132.618 152.289 133.059 153.019C133.511 153.768 133.751 154.527 133.779 155.295C133.797 156.069 133.632 156.785 133.282 157.445C132.938 158.113 132.419 158.657 131.725 159.076C131.168 159.412 130.613 159.617 130.058 159.69C129.504 159.762 128.975 159.721 128.469 159.565C127.97 159.418 127.513 159.177 127.098 158.841C126.675 158.512 126.317 158.105 126.025 157.621C125.953 157.502 125.883 157.376 125.815 157.242C125.747 157.109 125.694 156.979 125.655 156.853L131.559 153.289L132.303 154.522L127.276 157.557L127.676 156.549C127.855 157.051 128.127 157.429 128.492 157.683C128.853 157.95 129.249 158.091 129.681 158.105C130.109 158.133 130.529 158.023 130.94 157.775C131.351 157.527 131.652 157.201 131.845 156.798C132.044 156.404 132.114 155.963 132.056 155.475C132.003 154.996 131.796 154.498 131.434 153.981C131.177 153.451 130.844 153.054 130.435 152.79C130.017 152.532 129.576 152.399 129.111 152.393C128.638 152.393 128.182 152.525 127.743 152.789C127.296 153.059 126.977 153.389 126.788 153.777C126.59 154.171 126.496 154.583 126.506 155.012L124.874 155.157C124.811 154.722 124.849 154.269 124.988 153.798C125.124 153.342 125.357 152.903 125.687 152.479C126.013 152.07 126.428 151.714 126.93 151.411Z" fill="white"/>
<path d="M113.882 157.577C114.667 157.301 115.452 157.235 116.236 157.378C117.011 157.524 117.703 157.852 118.312 158.362C118.92 158.872 119.368 159.534 119.654 160.35C119.943 161.175 120.008 161.972 119.849 162.74C119.692 163.518 119.356 164.202 118.839 164.79C118.325 165.389 117.671 165.828 116.876 166.107C116.071 166.389 115.286 166.456 114.521 166.306C113.75 166.17 113.065 165.845 112.466 165.332C111.861 164.832 111.414 164.169 111.124 163.344C110.834 162.519 110.768 161.717 110.924 160.938C111.08 160.16 111.415 159.472 111.929 158.873C112.446 158.285 113.097 157.853 113.882 157.577ZM114.438 159.162C113.955 159.332 113.568 159.598 113.277 159.96C112.986 160.322 112.805 160.742 112.735 161.218C112.658 161.709 112.71 162.211 112.89 162.724C113.071 163.237 113.342 163.656 113.705 163.981C114.058 164.309 114.461 164.524 114.914 164.625C115.368 164.726 115.836 164.691 116.319 164.522C116.792 164.355 117.18 164.09 117.481 163.724C117.772 163.362 117.958 162.94 118.038 162.46C118.108 161.983 118.053 161.488 117.872 160.975C117.692 160.462 117.424 160.036 117.068 159.697C116.705 159.372 116.297 159.16 115.843 159.059C115.379 158.962 114.911 158.996 114.438 159.162Z" fill="white"/>
</svg>
