<svg width="18" height="18" viewBox="0 0 18 18" fill="none" xmlns="http://www.w3.org/2000/svg">
<path d="M17.0001 1.00898C16.3036 1.61129 15.5325 2.07196 14.7164 2.37325C14.2784 1.75577 13.6963 1.31812 13.0488 1.11948C12.4013 0.920849 11.7197 0.970814 11.0961 1.26262C10.4726 1.55443 9.93713 2.074 9.56225 2.75107C9.18737 3.42813 8.99114 4.23003 9.00008 5.04829V5.93996C7.722 5.9806 6.45556 5.63306 5.31355 4.92831C4.17153 4.22355 3.18941 3.18346 2.45463 1.90066C2.45463 1.90066 -0.454462 9.92577 6.09099 13.4925C4.59319 14.739 2.80893 15.3641 1.00008 15.2758C7.54554 19.7342 15.5455 15.2758 15.5455 5.02154C15.5449 4.77316 15.5254 4.5254 15.4874 4.28144C16.2296 3.38396 16.7534 2.25083 17.0001 1.00898Z" fill="white" stroke="white" stroke-width="2" stroke-linecap="round" stroke-linejoin="round"/>
</svg>
